# xmcd
#
# Track frame offsets: 
#        183
#        16088
#        33488
#        43273
#        60673
#        73168
#        85338
#        101080
#        113045
#        124843
#        138435
#        157253
#        169410
#        179938
#        192660
#        209940
#        221805
#        240430
#        258390
#        278743
#        289188
#        302493
#
# Disc length: 4257 seconds
#
# Revision: 5
# Processed by: cddbd v1.5.2PL0 Copyright (c) Steve Scherf et al.
# Submitted via: ExactAudioCopy v0.99pb5
#
DISCID=64109f16
DTITLE=Howlin' Wolf - The Power of the Voice
DYEAR=1900
DGENRE=Blues
TTITLE0=I Ain't Superstitious
TTITLE1=Sittin' On The Top Of The World
TTITLE2=Built For Comfort
TTITLE3=The Red Rooster
TTITLE4=Highway 49
TTITLE5=Cause Of It All
TTITLE6=Killing Floor
TTITLE7=Brownskin Woman
TTITLE8=The Sun Is Rising
TTITLE9=I'm The Wolf
TTITLE10=House Rockin' Boogie
TTITLE11=Dog Me Around
TTITLE12=Keep What You Got
TTITLE13=My Baby Stole Off
TTITLE14=Crying At Daybreak
TTITLE15=Passing By Blues
TTITLE16=Poor Boy
TTITLE17=Commit A Crime
TTITLE18=Wang-Dang-Doodle
TTITLE19=Do The Do
TTITLE20=Worried About My Baby
TTITLE21=Rockin' Daddy
EXTD=
EXTT0=
EXTT1=
EXTT2=
EXTT3=
EXTT4=
EXTT5=
EXTT6=
EXTT7=
EXTT8=
EXTT9=
EXTT10=
EXTT11=
EXTT12=
EXTT13=
EXTT14=
EXTT15=
EXTT16=
EXTT17=
EXTT18=
EXTT19=
EXTT20=
EXTT21=
PLAYORDER=
